<?xml version="1.0" encoding="utf-8"?>
<!-- Generator: Adobe Illustrator 24.1.2, SVG Export Plug-In . SVG Version: 6.00 Build 0)  -->
<svg version="1.1" id="Layer_1" xmlns="http://www.w3.org/2000/svg" xmlns:xlink="http://www.w3.org/1999/xlink" x="0px" y="0px"
	 viewBox="0 0 96 96" style="enable-background:new 0 0 96 96;" xml:space="preserve">
<style type="text/css">
	.st0{fill:#FFFFFF;}
</style>
<path class="st0" d="M85.9,50.8L49.2,14c-0.9-0.9-2.4-0.9-3.3,0l0,0L9.2,50.8c-0.9,0.9-0.9,2.4,0,3.3c0.4,0.4,1,0.7,1.6,0.7
	s1.2-0.3,1.6-0.7l35.1-35.2l35.1,35.2c0.9,0.9,2.4,0.9,3.3,0C86.8,53.2,86.8,51.8,85.9,50.8L85.9,50.8z M73.5,57.2
	c-1.3,0-2.3,1.1-2.3,2.3v16.6H23.9V20.5c0-1.3-1-2.3-2.3-2.3s-2.3,1-2.3,2.3v58c0,1.3,1.1,2.3,2.4,2.3l0,0h52c1.3,0,2.3-1,2.3-2.3
	v-19c0-1.3-1-2.3-2.3-2.3C73.6,57.2,73.5,57.2,73.5,57.2z"/>
</svg>
