<?xml version="1.0" encoding="utf-8"?>
<!-- Generator: Adobe Illustrator 24.1.2, SVG Export Plug-In . SVG Version: 6.00 Build 0)  -->
<svg version="1.1" id="Layer_1" xmlns="http://www.w3.org/2000/svg" xmlns:xlink="http://www.w3.org/1999/xlink" x="0px" y="0px"
	 viewBox="0 0 96 96" style="enable-background:new 0 0 96 96;" xml:space="preserve">
<style type="text/css">
	.st0{fill:#FFFFFF;}
</style>
<path class="st0" d="M86.9,20h-5.3v-4.5c-0.3-7.1-6-12.7-13.1-12.8c-7.3-0.1-13.3,5.8-13.4,13.1v4.1h-2.5l0.7-6.6
	c0.1-0.5,0-1-0.3-1.4s-0.8-0.6-1.3-0.6h-11c-0.5,0-1,0.2-1.3,0.6c-0.3,0.4-0.5,0.9-0.4,1.4l1,8.9c-3.5,0.7-6.8,2.1-9.7,4l-4.9-7.5
	c-0.3-0.4-0.8-0.7-1.3-0.8c-0.5,0-1.1,0.2-1.5,0.5l-9.3,9.3c-0.1,0.1-0.2,0.2-0.2,0.3c-0.5,0.8-0.3,1.9,0.5,2.5l7.6,4.9
	c-1.9,3-3.3,6.3-4,9.7l-8.9-1c-0.5-0.1-1,0.1-1.4,0.4c-0.4,0.3-0.6,0.8-0.6,1.3v10.9c0,0.5,0.2,1,0.6,1.3s0.8,0.5,1.3,0.5l9-1
	c0.7,3.5,2.1,6.7,4,9.7l-7.4,4.8c-0.1,0.1-0.2,0.2-0.3,0.3c-0.7,0.7-0.7,1.8,0,2.5l8.2,8.2c0.4,0.3,0.8,0.5,1.3,0.5s1-0.2,1.3-0.6
	l5.9-6.6c3,2,6.4,3.4,10,4.1l-1,8.9c-0.1,0.5,0.1,1,0.4,1.4c0.3,0.4,0.8,0.6,1.3,0.6h11c0.5,0,1-0.2,1.4-0.6
	c0.3-0.4,0.5-0.9,0.4-1.4l-1-8.9c1.1-0.2,2.2-0.5,3.2-0.9c2.3-0.8,4.6-1.9,6.6-3.2l5.4,6.5c0.3,0.4,0.8,0.6,1.3,0.6s1-0.2,1.3-0.5
	l8.2-8.2c0.4-0.4,0.6-0.9,0.5-1.4c0-0.5-0.3-1-0.7-1.3l-7.2-4.6c1.9-3,3.3-6.3,4-9.7l8.9,1c0.5,0.1,1-0.1,1.4-0.4
	c0.4-0.3,0.6-0.8,0.6-1.3v-6.7c1.5-1,2.5-2.8,2.5-4.7V21.8C88.7,20.8,87.9,20,86.9,20z M58.7,15.9c0.1-5.2,4.1-9.4,9.3-9.6
	c5.4-0.2,9.9,3.9,10.1,9.3V20H58.7l0,0V15.9z M58.4,51.2c0,0.1,0,0.2,0,0.2c0,6.7-5.5,12.2-12.2,12.2c-6.8,0-12.2-5.5-12.2-12.2
	c0-6.8,5.5-12.2,12.2-12.2c0.7,0,1.4,0.1,2,0.2v6.4c0,3,2.4,5.5,5.5,5.5L58.4,51.2L58.4,51.2z M82.7,54.9L74.1,54
	c-0.9-0.1-1.8,0.5-1.9,1.5c-0.6,4.1-2.3,8-4.7,11.4c-0.3,0.4-0.4,0.9-0.3,1.4s0.4,0.9,0.8,1.2l6.8,4.5l-5.3,5.3L64.2,73
	c-0.6-0.7-1.7-0.9-2.4-0.3c-2.1,1.6-4.5,2.8-7,3.7c-1.4,0.5-2.9,0.8-4.3,1.1c-0.9,0.1-1.6,1-1.5,1.9l0.9,8.6h-7l1-8.6
	c0.1-0.9-0.6-1.8-1.5-1.9c-4.1-0.6-8.1-2.3-11.4-4.8c-0.7-0.6-1.8-0.4-2.4,0.2L23,79.3L17.7,74l7.1-4.5c0.4-0.3,0.7-0.7,0.8-1.2
	s0-1-0.3-1.4c-2.5-3.4-4.1-7.3-4.7-11.4c-0.1-0.9-1-1.6-1.9-1.5l-8.6,0.9v-7l8.6,1c0.9,0.1,1.8-0.6,1.9-1.5c0.6-4.1,2.2-8,4.7-11.4
	c0.3-0.4,0.4-0.9,0.3-1.4c-0.1-0.5-0.4-0.9-0.8-1.2l-7.2-4.7l6.2-6.2l4.7,7.2l0.1,0.1c0.6,0.8,1.7,0.9,2.4,0.3
	c3.4-2.5,7.3-4.1,11.5-4.7c0.9-0.1,1.6-1,1.5-1.9l-1-8.6h7l-0.6,5.3c-0.6,0.3-1,0.9-1,1.6v13.9c-0.7-0.1-1.3-0.1-2-0.1
	c-8.7,0-15.8,7.1-15.8,15.8s7.1,15.8,15.8,15.8l0,0c8.7,0,15.8-7.1,15.8-15.8l0,0c0-0.1,0-0.1,0-0.2h20.7v3.7H82.7z M85.1,45.4
	c0,1.2-1,2.1-2.2,2.2H53.7l0,0c-1,0-1.9-0.9-1.9-1.9V23.6h5.1l0,0c0.1,0,0.2,0,0.3,0h22.7h5.2C85.1,23.6,85.1,45.4,85.1,45.4z"/>
</svg>
