<svg id="Layer_1" data-name="Layer 1" xmlns="http://www.w3.org/2000/svg" xmlns:xlink="http://www.w3.org/1999/xlink" viewBox="0 0 96 96"><defs><style>.cls-1{fill:none;}.cls-2{fill:#f38809;}.cls-3{clip-path:url(#clip-path);}.cls-4{fill:#fff;}.cls-5{fill:#eb5e28;}</style><clipPath id="clip-path"><rect class="cls-1" x="26.91" y="16.22" width="39.92" height="39.92" rx="9.07"/></clipPath></defs><rect class="cls-2" x="26.91" y="16.22" width="39.92" height="39.92" rx="9.07"/><g class="cls-3"><path class="cls-4" d="M36,14.41A10.89,10.89,0,0,0,25.09,25.29h3.63A7.26,7.26,0,0,1,36,18ZM57.75,18A7.26,7.26,0,0,1,65,25.29h3.63A10.88,10.88,0,0,0,57.75,14.41Zm7.26,29a7.26,7.26,0,0,1-7.26,7.26V58A10.88,10.88,0,0,0,68.64,47.07ZM36,54.33a7.26,7.26,0,0,1-7.26-7.26H25.09A10.89,10.89,0,0,0,36,58Zm-7.26-7.26V25.29H25.09V47.07Zm29,7.26H36V58H57.75Zm7.26-29V47.07h3.63V25.29ZM36,18H57.75V14.41H36Z"/></g><polygon class="cls-2" points="88.6 42.59 68.64 50.7 66.83 45.28 81.4 39.81 66.83 34.34 68.64 28.92 88.6 37.03 88.6 42.59"/><path class="cls-4" d="M48.68,40.72a4.54,4.54,0,0,1,4.54-4.54H65v9.07H53.22A4.53,4.53,0,0,1,48.68,40.72Z"/><path class="cls-5" d="M83.35,62.38l3.24-.52v3.37h3.9v2.7h-3.9v4a3.29,3.29,0,0,0,.35,1.63,1.57,1.57,0,0,0,1.46.61,7.82,7.82,0,0,0,1.07-.08,6.21,6.21,0,0,0,1-.29L91,76.36a8.42,8.42,0,0,1-1.31.41,7.33,7.33,0,0,1-1.76.18,6,6,0,0,1-2.2-.35,3.56,3.56,0,0,1-1.39-1A3.87,3.87,0,0,1,83.55,74a9.77,9.77,0,0,1-.2-2ZM80.41,76.29a16.58,16.58,0,0,1-2.13.44,17.28,17.28,0,0,1-2.74.22,6.39,6.39,0,0,1-2.44-.4,3.78,3.78,0,0,1-1.53-1.08,4.53,4.53,0,0,1-.8-1.7,9.1,9.1,0,0,1-.24-2.16V65.23h3.24v6a4.56,4.56,0,0,0,.42,2.26,1.62,1.62,0,0,0,1.54.7l.74,0,.7-.09V65.23h3.24ZM68,69.13a9.29,9.29,0,0,1-.58,3.42A7.07,7.07,0,0,1,65.87,75a6.69,6.69,0,0,1-2.4,1.48,8.89,8.89,0,0,1-5.88,0A6.92,6.92,0,0,1,55.2,75a7.15,7.15,0,0,1-1.61-2.46A9.28,9.28,0,0,1,53,69.13a8.71,8.71,0,0,1,.61-3.4,7.48,7.48,0,0,1,1.63-2.48,6.85,6.85,0,0,1,2.4-1.5,8.14,8.14,0,0,1,2.87-.5,8.3,8.3,0,0,1,2.92.5,6.55,6.55,0,0,1,2.39,1.5,7.17,7.17,0,0,1,1.62,2.48A9.1,9.1,0,0,1,68,69.13Zm-11.51,0a6.88,6.88,0,0,0,.26,2,5.13,5.13,0,0,0,.78,1.55,3.64,3.64,0,0,0,1.26,1,4,4,0,0,0,1.7.35,3.94,3.94,0,0,0,1.68-.35,3.31,3.31,0,0,0,1.26-1,4.54,4.54,0,0,0,.79-1.55,7.28,7.28,0,0,0,0-4,4.28,4.28,0,0,0-.79-1.55,3.17,3.17,0,0,0-1.26-1,3.94,3.94,0,0,0-1.68-.35,3.73,3.73,0,0,0-1.7.37,3.59,3.59,0,0,0-1.26,1,4.8,4.8,0,0,0-.78,1.55A6.78,6.78,0,0,0,56.51,69.13ZM45.16,75.25a5.45,5.45,0,0,1-1.44,4.16,6.11,6.11,0,0,1-4.39,1.37,11.3,11.3,0,0,1-2.09-.2,10.79,10.79,0,0,1-1.94-.48l.56-2.72a10.45,10.45,0,0,0,1.59.48,9.39,9.39,0,0,0,1.92.17,2.58,2.58,0,0,0,2-.61,2.14,2.14,0,0,0,.59-1.56v-.42a5.19,5.19,0,0,1-1.09.37,5.57,5.57,0,0,1-1.2.11A4.64,4.64,0,0,1,36,74.53a5.67,5.67,0,0,1-1.27-3.94,6.4,6.4,0,0,1,.39-2.29,4.91,4.91,0,0,1,1.14-1.78,5,5,0,0,1,1.85-1.14A7,7,0,0,1,40.57,65a9.89,9.89,0,0,1,1.2.07c.42,0,.83.07,1.24.13s.79.13,1.15.21.71.16,1,.24ZM38,70.59c0,1.81.74,2.72,2.2,2.72a3.19,3.19,0,0,0,.94-.13,3.66,3.66,0,0,0,.74-.31V67.69a4.17,4.17,0,0,0-.57-.06,5.58,5.58,0,0,0-.76,0,2.25,2.25,0,0,0-1.92.85A3.54,3.54,0,0,0,38,70.59Zm-8.59.35a4,4,0,0,0-.61-2.36,1.91,1.91,0,0,0-1.69-.87,2,2,0,0,0-1.72.87,4,4,0,0,0-.61,2.36,4.13,4.13,0,0,0,.61,2.39,2,2,0,0,0,1.72.87,1.91,1.91,0,0,0,1.69-.87A4.13,4.13,0,0,0,29.45,70.94Zm3.31,0a7.59,7.59,0,0,1-.39,2.48,5.44,5.44,0,0,1-1.13,1.91,5,5,0,0,1-1.79,1.22,5.82,5.82,0,0,1-2.3.44,5.91,5.91,0,0,1-2.31-.44,5.2,5.2,0,0,1-1.77-1.22,5.8,5.8,0,0,1-1.15-1.91,7.09,7.09,0,0,1-.41-2.48,6.9,6.9,0,0,1,.41-2.46,5.71,5.71,0,0,1,1.18-1.9,5.38,5.38,0,0,1,1.78-1.22,5.85,5.85,0,0,1,2.27-.43,5.73,5.73,0,0,1,2.26.43,5.22,5.22,0,0,1,1.79,1.22,5.65,5.65,0,0,1,1.15,1.9A6.9,6.9,0,0,1,32.76,70.94ZM20.08,73.77v2.91H10V61.6h3.4V73.77Z"/></svg>