<svg id="Layer_1" data-name="Layer 1" xmlns="http://www.w3.org/2000/svg" xmlns:xlink="http://www.w3.org/1999/xlink" viewBox="0 0 96 96"><defs><style>.cls-1,.cls-2,.cls-4{fill:#ccc5b9;}.cls-1{clip-rule:evenodd;}.cls-2{fill-rule:evenodd;}.cls-3{clip-path:url(#clip-path);}</style><clipPath id="clip-path"><polygon class="cls-1" points="32.57 37.18 55.49 23.77 57.57 32.74 40.84 41.77 57.57 50.81 55.49 59.77 32.57 46.37 32.57 37.18"/></clipPath></defs><polygon class="cls-2" points="32.57 37.18 55.49 23.77 57.57 32.74 40.84 41.77 57.57 50.81 55.49 59.77 32.57 46.37 32.57 37.18"/><g class="cls-3"><path class="cls-4" d="M33.57,46.37V37.18h-2v9.19ZM56,58.91,33.08,45.5l-1,1.73L55,60.64Zm.6-8.32-2.08,9,1.95.45,2.08-9ZM40.36,42.65l16.74,9,.95-1.76-16.74-9ZM57.1,31.86l-16.74,9,1,1.76,16.74-9ZM54.52,24l2.08,9,1.95-.45-2.08-9ZM33.08,38,56,24.64l-1-1.73L32.07,36.32Zm-.51,8.33h-1v.57l.5.29Zm22.92,13.4-.5.87,1.17.68L56.47,60Zm2.08-9,1,.23.17-.75-.67-.36Zm-16.73-9-.48-.88-1.63.88,1.63.88Zm16.73-9,.48.88.67-.37-.17-.74Zm-2.08-9,1-.22-.31-1.32L55,22.91ZM32.57,37.18l-.5-.86-.5.29v.57Z"/></g></svg>