<?xml version="1.0" encoding="utf-8"?>
<!-- Generator: Adobe Illustrator 24.1.2, SVG Export Plug-In . SVG Version: 6.00 Build 0)  -->
<svg version="1.1" id="Layer_1" xmlns="http://www.w3.org/2000/svg" xmlns:xlink="http://www.w3.org/1999/xlink" x="0px" y="0px"
	 viewBox="0 0 96 96" style="enable-background:new 0 0 96 96;" xml:space="preserve">
<style type="text/css">
	.st0{fill-rule:evenodd;clip-rule:evenodd;fill:#FFFFFF;}
	.st1{fill:#FFFFFF;}
</style>
<path class="st0" d="M40.1,44.5c20,0,36.2,8.1,36.2,18.1v11.5H68c-6.6,4-16.7,6.6-27.9,6.6c-20,0-36.2-8.1-36.2-18.1
	S20.1,44.5,40.1,44.5z M66.7,69.2h4.7v-6.6c0-2.1-1.8-5.4-7.9-8.4c-5.7-2.9-14-4.8-23.4-4.8s-17.6,1.9-23.4,4.8
	c-6,3-7.9,6.3-7.9,8.4c0,2.1,1.9,5.4,7.9,8.4c5.7,2.9,14,4.8,23.4,4.8c10.6,0,19.7-2.4,25.4-5.9L66.7,69.2z"/>
<path class="st0" d="M59.9,13.2c-17.3,0-31.2,7-31.2,15.6v9.9h7.1c5.7,3.5,14.4,5.7,24.1,5.7c17.2,0,31.2-7,31.2-15.6
	S77.1,13.2,59.9,13.2z M36.9,34.5h-4.1v-5.7c0-1.8,1.6-4.6,6.8-7.2c5-2.5,12.1-4.1,20.2-4.1S75,19.1,80,21.6
	c5.2,2.6,6.8,5.4,6.8,7.2c0,1.8-1.6,4.6-6.8,7.2c-5,2.5-12.1,4.1-20.2,4.1c-9.2,0-17-2.1-21.9-5.1L36.9,34.5z"/>
<rect x="23.7" y="58.3" class="st1" width="31.2" height="4.4"/>
<rect x="46.7" y="23.6" class="st1" width="31.2" height="4.4"/>
<rect x="33.5" y="64.8" class="st1" width="21.4" height="4.4"/>
<rect x="46.7" y="30.2" class="st1" width="21.4" height="4.4"/>
</svg>
