<svg id="Layer_1" data-name="Layer 1" xmlns="http://www.w3.org/2000/svg" viewBox="0 0 96 96"><defs><style>.cls-1{fill:#ccc5b9;}</style></defs><path class="cls-1" d="M84.8,68.6c-.34,1.14-.7,2.21-1.06,3.21s-.77,2-1.21,2.91a8.14,8.14,0,0,1-.47.86,2.46,2.46,0,0,1-.52.58,1.72,1.72,0,0,1-.64.34,2.61,2.61,0,0,1-.83.11,2.87,2.87,0,0,1-.73-.08,2.56,2.56,0,0,1-.54-.15L79.09,75a2.71,2.71,0,0,0,.47.12,2.77,2.77,0,0,0,.42,0,.93.93,0,0,0,.69-.24,1.88,1.88,0,0,0,.42-.67c-.39-.75-.77-1.59-1.15-2.52a30.51,30.51,0,0,1-1.08-3.16h1.78c.07.29.16.61.26,1s.21.68.32,1,.23.68.34,1,.23.63.34.9q.15-.41.3-.9c.11-.33.21-.67.31-1s.2-.7.29-1,.18-.67.26-1Zm-6.66,5.74-.52.13-.62.1c-.21,0-.43.06-.66.07s-.42,0-.63,0a3.77,3.77,0,0,1-1.3-.22,2.47,2.47,0,0,1-1-.61,2.63,2.63,0,0,1-.61-1,3.7,3.7,0,0,1-.2-1.28,4.39,4.39,0,0,1,.18-1.3,2.9,2.9,0,0,1,.51-1,2.21,2.21,0,0,1,.83-.62,2.83,2.83,0,0,1,1.12-.21,2.3,2.3,0,0,1,.62.07,2.54,2.54,0,0,1,.57.19V66.05l1.68-.27Zm-3.8-2.82a2.06,2.06,0,0,0,.35,1.25,1.19,1.19,0,0,0,1,.47h.42l.32,0V70.13A1.68,1.68,0,0,0,76,70a1.7,1.7,0,0,0-.51-.07C74.74,69.9,74.34,70.44,74.34,71.52Zm-3,2.82-.52.13-.62.1c-.21,0-.43.06-.66.07s-.42,0-.63,0a3.73,3.73,0,0,1-1.3-.22,2.47,2.47,0,0,1-1-.61,2.63,2.63,0,0,1-.61-1,3.7,3.7,0,0,1-.21-1.28A4.38,4.38,0,0,1,66,70.3a2.9,2.9,0,0,1,.51-1,2.21,2.21,0,0,1,.83-.62,2.83,2.83,0,0,1,1.12-.21,2.3,2.3,0,0,1,.62.07,2.54,2.54,0,0,1,.57.19V66.05l1.68-.27Zm-3.8-2.82a2,2,0,0,0,.35,1.25,1.19,1.19,0,0,0,1,.47h.42l.32,0V70.13a1.68,1.68,0,0,0-.42-.16,1.75,1.75,0,0,0-.51-.07C67.94,69.9,67.54,70.44,67.54,71.52Zm-3,2.81a9.61,9.61,0,0,1-1.1.22,8.17,8.17,0,0,1-1.42.11,3.35,3.35,0,0,1-1.27-.2A1.83,1.83,0,0,1,60,73.9a2.18,2.18,0,0,1-.42-.88,4.85,4.85,0,0,1-.13-1.12V68.6h1.68v3.1a2.3,2.3,0,0,0,.22,1.17.85.85,0,0,0,.8.36h.38l.36,0V68.6h1.68Zm-6.35-2.76A3.7,3.7,0,0,1,58,72.85a2.78,2.78,0,0,1-.6,1,2.72,2.72,0,0,1-1,.63,3.78,3.78,0,0,1-1.31.22c-.2,0-.41,0-.64,0s-.44,0-.65-.07l-.61-.1c-.2,0-.37-.09-.52-.13V66.05l1.68-.27v3a2.46,2.46,0,0,1,.58-.19,2.84,2.84,0,0,1,.66-.07,2.59,2.59,0,0,1,1.11.22,2.2,2.2,0,0,1,.82.62,2.91,2.91,0,0,1,.49,1A4.54,4.54,0,0,1,58.18,71.57Zm-1.71,0q0-1.62-1.2-1.62a1.91,1.91,0,0,0-.52.07,1.51,1.51,0,0,0-.4.16v3.06l.31,0h.42a1.19,1.19,0,0,0,1-.47A2.06,2.06,0,0,0,56.47,71.52Zm-7.69-1.43a4.88,4.88,0,0,0-.53-.11,2.7,2.7,0,0,0-.65-.07l-.39,0-.32.06v4.53H45.21V68.92a8.19,8.19,0,0,1,1.06-.3,6.41,6.41,0,0,1,1.37-.14l.33,0a2.47,2.47,0,0,1,.38,0,2.63,2.63,0,0,1,.39.06l.32.09Zm-5.15,4.24a9.61,9.61,0,0,1-1.1.22,8.17,8.17,0,0,1-1.42.11,3.26,3.26,0,0,1-1.26-.2,1.86,1.86,0,0,1-.79-.56,2.18,2.18,0,0,1-.42-.88,4.87,4.87,0,0,1-.12-1.12V68.6H40.2v3.1a2.43,2.43,0,0,0,.21,1.17.85.85,0,0,0,.8.36h.38l.36,0V68.6h1.68Zm-8.07-2.78a2,2,0,0,0-.32-1.21,1,1,0,0,0-.88-.45,1,1,0,0,0-.89.45,2,2,0,0,0-.31,1.21,2.15,2.15,0,0,0,.31,1.24,1,1,0,0,0,.89.45,1,1,0,0,0,.88-.45A2.15,2.15,0,0,0,35.56,71.55Zm1.71,0a4.06,4.06,0,0,1-.2,1.29,2.9,2.9,0,0,1-.59,1,2.6,2.6,0,0,1-.92.63,3,3,0,0,1-1.2.23,3.08,3.08,0,0,1-1.19-.23,2.65,2.65,0,0,1-.91-.63,2.92,2.92,0,0,1-.6-1,3.79,3.79,0,0,1-.21-1.29,3.68,3.68,0,0,1,.21-1.27,3,3,0,0,1,.61-1,2.79,2.79,0,0,1,.92-.63,3.12,3.12,0,0,1,2.35,0,2.6,2.6,0,0,1,.92.63,2.78,2.78,0,0,1,.6,1A3.68,3.68,0,0,1,37.27,71.55ZM31,68.6c-.34,1.14-.69,2.21-1.06,3.21s-.77,2-1.2,2.91a6.61,6.61,0,0,1-.48.86,2.44,2.44,0,0,1-.51.58,1.76,1.76,0,0,1-.65.34,2.5,2.5,0,0,1-.82.11,2.82,2.82,0,0,1-.73-.08,2.56,2.56,0,0,1-.54-.15L25.28,75a2.62,2.62,0,0,0,.46.12,3,3,0,0,0,.43,0,.93.93,0,0,0,.69-.24,1.87,1.87,0,0,0,.41-.67c-.38-.75-.76-1.59-1.15-2.52A33.07,33.07,0,0,1,25,68.6h1.78c.08.29.17.61.26,1s.22.68.33,1,.22.68.34,1,.23.63.34.9l.3-.9c.11-.33.21-.67.3-1s.21-.7.3-1,.18-.67.26-1Zm-11,3a2,2,0,0,0-.32-1.21,1,1,0,0,0-.88-.45,1,1,0,0,0-.89.45,2,2,0,0,0-.31,1.21,2.15,2.15,0,0,0,.31,1.24,1,1,0,0,0,.89.45,1,1,0,0,0,.88-.45A2.15,2.15,0,0,0,20,71.55Zm1.71,0a4.06,4.06,0,0,1-.2,1.29,2.9,2.9,0,0,1-.59,1,2.6,2.6,0,0,1-.92.63,3,3,0,0,1-1.2.23,3.08,3.08,0,0,1-1.19-.23,2.65,2.65,0,0,1-.91-.63,2.92,2.92,0,0,1-.6-1,3.79,3.79,0,0,1-.21-1.29,3.68,3.68,0,0,1,.21-1.27,3,3,0,0,1,.61-1,2.79,2.79,0,0,1,.92-.63,3.12,3.12,0,0,1,2.35,0,2.69,2.69,0,0,1,.92.63,2.94,2.94,0,0,1,.6,1A3.68,3.68,0,0,1,21.71,71.55ZM11.32,67.13,13,66.85V68.6h2V70H13v2.08a1.7,1.7,0,0,0,.18.85.82.82,0,0,0,.76.31,3.48,3.48,0,0,0,.55,0,3.35,3.35,0,0,0,.53-.15l.24,1.31a5.46,5.46,0,0,1-.68.21,3.94,3.94,0,0,1-.91.09,3.1,3.1,0,0,1-1.14-.18,1.84,1.84,0,0,1-.72-.51,2.15,2.15,0,0,1-.39-.82,5.48,5.48,0,0,1-.1-1Zm79.44-5A4.28,4.28,0,0,1,89.57,62a1.78,1.78,0,0,1-.72-.4,1.37,1.37,0,0,1-.36-.64,3.85,3.85,0,0,1-.09-.86V53.53l1.68-.27v6.46a2.54,2.54,0,0,0,0,.41.68.68,0,0,0,.12.3.79.79,0,0,0,.29.2,1.23,1.23,0,0,0,.48.1Zm-3.56,0A4.3,4.3,0,0,1,86,62a1.78,1.78,0,0,1-.72-.4,1.56,1.56,0,0,1-.36-.64,3.85,3.85,0,0,1-.09-.86V53.53l1.68-.27v6.46a2.54,2.54,0,0,0,0,.41.83.83,0,0,0,.13.3.75.75,0,0,0,.28.2,1.23,1.23,0,0,0,.48.1Zm-6.47-6.2a4,4,0,0,1,1.24.17,1.84,1.84,0,0,1,.79.49,1.74,1.74,0,0,1,.43.76,3.94,3.94,0,0,1,.12,1v3.49l-1,.18a9.79,9.79,0,0,1-1.55.11,4.8,4.8,0,0,1-1.05-.1,2.32,2.32,0,0,1-.8-.33,1.51,1.51,0,0,1-.52-.6,2.13,2.13,0,0,1-.18-.92,1.84,1.84,0,0,1,.2-.88,1.61,1.61,0,0,1,.56-.57,2.57,2.57,0,0,1,.8-.31,4.92,4.92,0,0,1,.94-.1,3.18,3.18,0,0,1,.57,0,1.9,1.9,0,0,1,.42.06v-.15a.9.9,0,0,0-.26-.69,1.26,1.26,0,0,0-.9-.26,4.68,4.68,0,0,0-.84.07,3.41,3.41,0,0,0-.73.17l-.21-1.36.36-.09.49-.09a4.46,4.46,0,0,1,.54-.06A3.77,3.77,0,0,1,80.73,55.92Zm.14,4.92.47,0a1.73,1.73,0,0,0,.36,0V59.52l-.3-.05-.37,0a3.44,3.44,0,0,0-.46,0,1.08,1.08,0,0,0-.36.11.61.61,0,0,0-.24.21.59.59,0,0,0-.09.34.58.58,0,0,0,.26.55A1.5,1.5,0,0,0,80.87,60.84Zm-6,1.33A3.85,3.85,0,0,1,72,61.11a4.25,4.25,0,0,1-1-3,4.68,4.68,0,0,1,.3-1.73,3.75,3.75,0,0,1,.84-1.28,3.44,3.44,0,0,1,1.26-.8A4.58,4.58,0,0,1,75,54a4.19,4.19,0,0,1,.9.08,3.9,3.9,0,0,1,.71.17,3.25,3.25,0,0,1,.51.19l.29.16L76.85,56a4.09,4.09,0,0,0-.84-.33,4,4,0,0,0-1.08-.14,2.45,2.45,0,0,0-.8.14,1.81,1.81,0,0,0-.69.44,2,2,0,0,0-.47.76,3.27,3.27,0,0,0-.18,1.15,4.2,4.2,0,0,0,.11,1,2.28,2.28,0,0,0,.38.8,2,2,0,0,0,.7.54,2.51,2.51,0,0,0,1,.19,4.7,4.7,0,0,0,.68,0,5.33,5.33,0,0,0,.55-.11,3.26,3.26,0,0,0,.41-.14l.33-.15.48,1.41a3.93,3.93,0,0,1-1,.41A6.22,6.22,0,0,1,74.86,62.17ZM65.46,59a2,2,0,0,0-.31-1.21,1,1,0,0,0-.88-.45,1,1,0,0,0-.89.45A2,2,0,0,0,63.06,59a2.17,2.17,0,0,0,.32,1.24,1,1,0,0,0,.89.45,1,1,0,0,0,.88-.45A2.17,2.17,0,0,0,65.46,59Zm1.72,0A3.79,3.79,0,0,1,67,60.32a2.88,2.88,0,0,1-.58,1,2.64,2.64,0,0,1-.93.63,3,3,0,0,1-1.19.23,3,3,0,0,1-1.19-.23,2.69,2.69,0,0,1-.92-.63,3.07,3.07,0,0,1-.59-1A3.57,3.57,0,0,1,61.35,59a3.46,3.46,0,0,1,.22-1.27,3.11,3.11,0,0,1,.6-1,2.94,2.94,0,0,1,.93-.63,3,3,0,0,1,1.17-.23,2.94,2.94,0,0,1,1.17.23,2.73,2.73,0,0,1,.93.63,2.92,2.92,0,0,1,.59,1A3.46,3.46,0,0,1,67.18,59Zm-8.47-.58a1.48,1.48,0,0,0-.07-.42.91.91,0,0,0-.2-.36.92.92,0,0,0-.32-.26,1,1,0,0,0-.49-.1,1,1,0,0,0-.48.1.86.86,0,0,0-.34.25,1.12,1.12,0,0,0-.21.37,2.88,2.88,0,0,0-.11.42Zm-3.94.64A3.66,3.66,0,0,1,55,57.71a3.13,3.13,0,0,1,.64-1,2.56,2.56,0,0,1,.9-.59,2.82,2.82,0,0,1,1.06-.21,2.62,2.62,0,0,1,2,.78A3.21,3.21,0,0,1,60.34,59c0,.09,0,.2,0,.32s0,.22,0,.31H56.49a1.12,1.12,0,0,0,.49.82,2,2,0,0,0,1.15.3,4.43,4.43,0,0,0,.9-.08,3.85,3.85,0,0,0,.73-.21L60,61.79a2.26,2.26,0,0,1-.36.14,5,5,0,0,1-.51.11,4.89,4.89,0,0,1-.59.09c-.21,0-.42,0-.63,0a3.68,3.68,0,0,1-1.39-.24,2.83,2.83,0,0,1-1-.64,2.77,2.77,0,0,1-.58-1A4,4,0,0,1,54.77,59.09Zm-1.29,2.73L53,62l-.62.1c-.21,0-.43.06-.65.07l-.63,0a3.79,3.79,0,0,1-1.31-.21,2.67,2.67,0,0,1-1-.61,2.91,2.91,0,0,1-.61-1,4,4,0,0,1-.2-1.28,4.39,4.39,0,0,1,.18-1.3,2.75,2.75,0,0,1,.52-1,2.18,2.18,0,0,1,.82-.62A3.18,3.18,0,0,1,51.24,56a3.14,3.14,0,0,1,.56.2V53.53l1.68-.27ZM49.68,59A2.08,2.08,0,0,0,50,60.25a1.19,1.19,0,0,0,1,.47h.42l.31,0V57.61a1.73,1.73,0,0,0-.42-.17,2.07,2.07,0,0,0-.5-.06Q49.68,57.38,49.68,59Zm-2.85-4.63a.93.93,0,0,1-.3.73,1,1,0,0,1-.7.26,1.07,1.07,0,0,1-.71-.26.92.92,0,0,1-.29-.73.89.89,0,0,1,.29-.72,1,1,0,0,1,.71-.27,1,1,0,0,1,.7.27A.89.89,0,0,1,46.83,54.37ZM46.67,62H45V56.08h1.68ZM39.3,62c-.31-.66-.62-1.34-.92-2s-.58-1.41-.85-2.1-.53-1.35-.76-2-.42-1.2-.58-1.69h1.93c.15.45.32.94.49,1.46l.54,1.56c.19.52.37,1,.54,1.49s.33.88.48,1.22c.15-.34.31-.75.48-1.22s.36-1,.54-1.49.37-1,.54-1.56.35-1,.5-1.46H44.1c-.18.49-.38,1.06-.6,1.69s-.47,1.29-.74,2-.56,1.39-.86,2.1-.61,1.38-.91,2Zm-8.06-3.56a2,2,0,0,0-.08-.42.89.89,0,0,0-.19-.36,1.06,1.06,0,0,0-.33-.26,1,1,0,0,0-.49-.1,1,1,0,0,0-.48.1.86.86,0,0,0-.34.25,1.12,1.12,0,0,0-.21.37,2,2,0,0,0-.1.42Zm-3.95.64a3.66,3.66,0,0,1,.24-1.38,3.13,3.13,0,0,1,.64-1,2.56,2.56,0,0,1,.9-.59,2.82,2.82,0,0,1,1.06-.21,2.62,2.62,0,0,1,2,.78A3.21,3.21,0,0,1,32.86,59c0,.09,0,.2,0,.32s0,.22,0,.31H29a1.08,1.08,0,0,0,.48.82,2,2,0,0,0,1.15.3,4.43,4.43,0,0,0,.9-.08,3.64,3.64,0,0,0,.73-.21l.23,1.36a2.26,2.26,0,0,1-.36.14,5,5,0,0,1-.51.11,4.71,4.71,0,0,1-.58.09c-.21,0-.43,0-.64,0A3.71,3.71,0,0,1,29,61.93a2.83,2.83,0,0,1-1-.64,2.77,2.77,0,0,1-.58-1A4,4,0,0,1,27.29,59.09Zm-4.16-.87.51-.56.52-.58.46-.55c.15-.17.28-.32.38-.45h2L25.83,57.4c-.38.41-.79.84-1.24,1.28a8.53,8.53,0,0,1,.7.74c.24.27.47.56.69.86a9.79,9.79,0,0,1,.62.91c.19.3.35.57.48.82H25.15c-.12-.2-.26-.41-.42-.64s-.31-.48-.48-.71-.36-.47-.55-.69a4.15,4.15,0,0,0-.57-.55V62H21.45V53.53l1.68-.27Zm-5.77-2.3a4,4,0,0,1,1.24.17,1.8,1.8,0,0,1,.78.49,1.64,1.64,0,0,1,.43.76,3.53,3.53,0,0,1,.13,1v3.49l-1,.18a9.6,9.6,0,0,1-1.55.11,4.93,4.93,0,0,1-1.05-.1,2.41,2.41,0,0,1-.8-.33,1.51,1.51,0,0,1-.52-.6,2.13,2.13,0,0,1-.18-.92,1.84,1.84,0,0,1,.2-.88,1.73,1.73,0,0,1,.57-.57,2.47,2.47,0,0,1,.8-.31,4.73,4.73,0,0,1,.93-.1,3.37,3.37,0,0,1,.58,0,2.11,2.11,0,0,1,.42.06v-.15a.94.94,0,0,0-.26-.69,1.3,1.3,0,0,0-.91-.26,4.76,4.76,0,0,0-.84.07,3.18,3.18,0,0,0-.72.17l-.22-1.36.36-.09.49-.09a4.46,4.46,0,0,1,.54-.06A3.9,3.9,0,0,1,17.36,55.92Zm.13,4.92.47,0a1.9,1.9,0,0,0,.37,0V59.52L18,59.47l-.37,0a3.19,3.19,0,0,0-.45,0,1,1,0,0,0-.36.11.58.58,0,0,0-.25.21.59.59,0,0,0-.09.34.6.6,0,0,0,.26.55A1.5,1.5,0,0,0,17.49,60.84ZM7.3,54.2c.13.25.29.55.46.92s.37.76.55,1.19.39.85.58,1.29.36.86.53,1.25c.16-.39.34-.8.53-1.25s.37-.87.56-1.29l.55-1.19c.18-.37.34-.67.48-.92h1.6c.07.52.14,1.1.2,1.75s.12,1.3.17,2,.1,1.39.13,2.09.09,1.35.12,2H12c0-.76,0-1.59-.09-2.48s-.09-1.8-.17-2.71q-.19.48-.45,1c-.16.39-.33.77-.49,1.15l-.46,1.11L10,61H8.76c-.1-.25-.23-.55-.38-.89s-.31-.72-.47-1.11l-.49-1.15-.45-1c-.07.91-.13,1.81-.17,2.71S6.74,61.25,6.71,62H5c0-.62.06-1.28.1-2s.09-1.4.14-2.09.11-1.37.17-2,.13-1.23.21-1.75Z"/><path class="cls-1" d="M72.43,21.84a.79.79,0,0,0-1.27-.64L58.27,31.66l.4-8.64a2.33,2.33,0,0,0-2.22-2.43L31.68,19.44a2.32,2.32,0,0,0-2.42,2.21l-.92,19.81a2.33,2.33,0,0,0,2.22,2.43L55.32,45a2.33,2.33,0,0,0,2.43-2.22l.42-9.09,11.88,12a.78.78,0,0,0,1.33-.52Z"/></svg>