<svg id="Layer_1" data-name="Layer 1" xmlns="http://www.w3.org/2000/svg" viewBox="0 0 96 96"><defs><style>.cls-1{fill:#ccc5b9;}.cls-2{fill:#fffcf2;}.cls-3{fill:#403d39;}</style></defs><path class="cls-1" d="M19,72.33A2,2,0,0,1,16.18,72l-5.76-7.34a2,2,0,0,1,.33-2.8L35.38,42.34a2,2,0,0,1,2.79.33L43.93,50a2,2,0,0,1-.33,2.8Z"/><path class="cls-1" d="M40.75,49.75A2,2,0,0,1,38,49.42l-.61-.78a2,2,0,0,1,.32-2.8l9.73-7.71a2,2,0,0,1,2.79.33l.62.78a2,2,0,0,1-.33,2.8Z"/><path class="cls-1" d="M77.54,17.41A16,16,0,0,0,55,14.73a16.12,16.12,0,1,0,22.56,2.68ZM48.42,40.49A21.23,21.23,0,0,1,51.9,10.82a21,21,0,0,1,29.53,3.5A21.21,21.21,0,0,1,78,44,21,21,0,0,1,48.42,40.49Z"/><circle class="cls-2" cx="69.34" cy="49.49" r="12.82" transform="translate(-11.35 76.8) rotate(-54.22)"/><path class="cls-3" d="M51.38,89a1.61,1.61,0,0,1-2.2.6L45,87.21A1.61,1.61,0,0,1,44.4,85l9.05-15.82a1.63,1.63,0,0,1,2.2-.6L59.85,71a1.62,1.62,0,0,1,.6,2.21Z"/><path class="cls-3" d="M57.42,74a1.62,1.62,0,0,1-2.2.6l-.71-.4a1.6,1.6,0,0,1-.59-2.2l5-8.75a1.61,1.61,0,0,1,2.2-.6l.7.4a1.63,1.63,0,0,1,.6,2.21Z"/><path class="cls-3" d="M74.9,39.44a12,12,0,1,0,4.48,16.4A12,12,0,0,0,74.9,39.44ZM61,63.82a16.06,16.06,0,1,1,21.92-6A16.06,16.06,0,0,1,61,63.82Z"/></svg>