<svg id="Layer_1" data-name="Layer 1" xmlns="http://www.w3.org/2000/svg" viewBox="0 0 96 96"><defs><style>.cls-1{fill:#ccc5b9;}.cls-2{fill:#403d39;}.cls-3{fill:#eb5e28;}</style></defs><path class="cls-1" d="M82.44,52.76S70.28,54.69,67,57.44,47.11,50.72,56,46.3,77.63,40,77.63,40Z"/><path class="cls-2" d="M10.71,46.65S21.85,56.78,23.31,59s28,24,30.55,12.84c0,0,5.63.14,5.79-4.88a5.68,5.68,0,0,0,4.5-5.73s4.33-.73,4.54-4.93c0,0-16.84-6.59-23.08-22.13,0,0-21.3-2.55-23.21-3.73Z"/><path class="cls-1" d="M63.08,48.19s-8.55,3.6-14.45-6.46c0,0-9.39,8.84-14.69,4L46.05,33a11.47,11.47,0,0,1,8.48,0c7.32,2.64,20.24-1.91,20.24-1.91l4.59,14.19Z"/><path class="cls-1" d="M30.42,64.19c-.78,1.2-2.62,1.39-4.1.42s-2.06-2.75-1.28-4l3.1-4.8c.78-1.21,2.62-1.39,4.1-.42s2.06,2.74,1.28,4Z"/><path class="cls-1" d="M46.19,74.82c-.78,1.2-2.62,1.39-4.11.42a3,3,0,0,1-1.26-3.95l3.09-4.8c.79-1.21,2.62-1.4,4.11-.41s2.06,2.74,1.28,4Z"/><path class="cls-1" d="M35.34,68.31a3.14,3.14,0,0,1-4.36.84,3.2,3.2,0,0,1-1-4.36l3.68-5.68A3.13,3.13,0,0,1,38,58.28a3.2,3.2,0,0,1,1,4.36Z"/><path class="cls-1" d="M40.72,71.84a3.14,3.14,0,0,1-4.37.83,3.18,3.18,0,0,1-1-4.36L39,62.64a3.15,3.15,0,0,1,4.37-.83,3.18,3.18,0,0,1,1,4.36Z"/><polygon class="cls-2" points="73.79 28.52 70.08 29.84 78.99 55.29 82.7 53.97 73.79 28.52"/><polygon class="cls-3" points="81.81 23.65 72.5 26.97 82.69 55.98 92 52.67 81.81 23.65"/><polygon class="cls-1" points="24.71 28.55 10.85 51.65 14.22 53.7 28.08 30.61 24.71 28.55"/><polygon class="cls-3" points="2 48.47 10.45 53.63 26.3 27.31 17.85 22.15 2 48.47"/></svg>