<?xml version="1.0" encoding="utf-8"?>
<!-- Generator: Adobe Illustrator 24.1.2, SVG Export Plug-In . SVG Version: 6.00 Build 0)  -->
<svg version="1.1" id="Layer_1" xmlns="http://www.w3.org/2000/svg" xmlns:xlink="http://www.w3.org/1999/xlink" x="0px" y="0px"
	 viewBox="0 0 25 25" style="enable-background:new 0 0 25 25;" xml:space="preserve">
<style type="text/css">
	.st0{fill:#43AF50;}
	.st1{fill:#FFF915;}
	.st2{fill:#39ACC6;}
	.st3{fill:#FFFFFF;}
	.st4{fill:#FF9A15;}
	.st5{fill:#37AA41;}
	.st6{fill:#2D3A8E;}
	.st7{fill:#DD2F2F;}
	.st8{fill:#2E4593;}
	.st9{fill:#DB2E2E;}
	.st10{fill:#39B742;}
	.st11{fill:#FF3B45;}
	.st12{fill:#E83434;}
</style>
<path d="M3.5,7.2c0,1.4,0,2.8,0,4.1c0,0.7,0,1.5,0,2.2c0,0.7,0,1.3,0,2c0,1.4,0,2.8,0,4.2c6.7,3.8,13.4-3.8,20,0c0-1.4,0-2.8,0-4.2
	c0,0,0,0,0,0c0-1.4,0-2.8,0-4.2c0,0,0,0,0,0c0-1.4,0-2.8,0-4.1C16.8,3.4,10.2,11,3.5,7.2z"/>
<g>
	<g>
		<g>
			<g>
				<path class="st9" d="M22.5,18.8c-6.7-3.8-13.4,3.8-20,0c0-4.2,0-8.4,0-12.6c6.7,3.8,13.4-3.8,20,0
					C22.5,10.4,22.5,14.6,22.5,18.8z"/>
			</g>
			<g>
				<path class="st10" d="M22.5,18.8c-6.7-3.8-13.4,3.8-20,0c0-2.1,0-4.2,0-6.2c6.7,3.8,13.4-3.8,20,0
					C22.5,14.6,22.5,16.7,22.5,18.8z"/>
			</g>
			<path class="st3" d="M2.5,14.6c6.7,3.8,13.4-3.8,20.1,0c0-1.4,0-2.8,0-4.2c-6.7-3.8-13.4,3.8-20.1,0C2.5,11.8,2.5,13.2,2.5,14.6z
				"/>
		</g>
	</g>
</g>
</svg>
