<?xml version="1.0" encoding="utf-8"?>
<!-- Generator: Adobe Illustrator 24.1.2, SVG Export Plug-In . SVG Version: 6.00 Build 0)  -->
<svg version="1.1" id="Layer_1" xmlns="http://www.w3.org/2000/svg" xmlns:xlink="http://www.w3.org/1999/xlink" x="0px" y="0px"
	 viewBox="0 0 25 25" style="enable-background:new 0 0 25 25;" xml:space="preserve">
<style type="text/css">
	.st0{fill:#43AF50;}
	.st1{fill:#FFF915;}
	.st2{fill:#39ACC6;}
	.st3{fill:#FFFFFF;}
	.st4{fill:#FF9A15;}
	.st5{fill:#37AA41;}
	.st6{fill:#2D3A8E;}
	.st7{fill:#DD2F2F;}
	.st8{fill:#2E4593;}
	.st9{fill:#DB2E2E;}
	.st10{fill:#39B742;}
	.st11{fill:#FF3B45;}
	.st12{fill:#E83434;}
</style>
<path d="M23.5,7.2c-6.7-3.8-13.4,3.8-20,0c0,1.4,0,2.8,0,4.1c0,0.6,0,1.3,0,1.9c0,0.8,0,1.5,0,2.3c0,1.4,0,2.8,0,4.2
	c6.7,3.8,13.4-3.8,20,0c0-1.4,0-2.8,0-4.2c0,0,0,0,0,0c0-1.4,0-2.8,0-4.2c0,0,0,0,0,0C23.5,10,23.5,8.6,23.5,7.2z"/>
<g>
	<g>
		<g>
			<g>
				<path class="st4" d="M22.5,18.8c-6.7-3.8-13.4,3.8-20,0c0-4.2,0-8.4,0-12.6c6.7,3.8,13.4-3.8,20,0
					C22.5,10.4,22.5,14.6,22.5,18.8z"/>
				<path class="st5" d="M22.5,18.8c-6.7-3.8-13.4,3.8-20,0c0-2.2,0-4.3,0-6.5c6.7,3.8,13.4-3.8,20,0C22.5,14.5,22.5,16.6,22.5,18.8
					z"/>
				<path class="st3" d="M2.5,14.6c6.7,3.8,13.4-3.8,20.1,0c0-1.4,0-2.8,0-4.2c-6.7-3.8-13.4,3.8-20.1,0C2.5,11.8,2.5,13.2,2.5,14.6
					z"/>
			</g>
			<g>
				<g>
					<path class="st6" d="M13.2,12.4C13.2,12.4,13.2,12.4,13.2,12.4c0.4,0.1,0.7,0.2,1.1,0.3c-0.4,0-0.8-0.1-1.1-0.1c0,0,0,0,0,0
						c0,0,0,0,0,0c0.3,0.1,0.7,0.3,1,0.4c-0.3-0.1-0.7-0.2-1-0.3c0,0,0,0,0,0c0.3,0.2,0.5,0.4,0.8,0.7c-0.3-0.2-0.6-0.4-0.9-0.6
						c0,0,0,0,0,0c0.2,0.3,0.4,0.6,0.6,0.8c-0.2-0.3-0.5-0.5-0.7-0.8c0,0,0,0,0,0c0.1,0.3,0.3,0.7,0.4,1c-0.2-0.3-0.3-0.6-0.5-0.9
						c0,0,0,0,0,0c0,0,0,0,0,0c0.1,0.4,0.1,0.8,0.2,1.2c-0.1-0.4-0.2-0.7-0.3-1.1c0,0,0,0,0,0c0,0,0,0,0,0c0,0.4,0,0.8-0.1,1.2
						c0-0.4,0-0.8-0.1-1.2c0,0,0,0,0,0c0,0,0,0,0,0c-0.1,0.4-0.2,0.8-0.3,1.3c0.1-0.4,0.1-0.8,0.2-1.2c0,0,0,0,0,0c0,0,0,0,0,0
						c-0.2,0.4-0.3,0.8-0.5,1.3c0.1-0.4,0.3-0.8,0.4-1.3c0,0,0,0,0,0c0,0,0,0,0,0c-0.2,0.4-0.5,0.8-0.7,1.2c0.2-0.4,0.4-0.8,0.6-1.2
						c0,0,0,0,0,0c0,0,0,0,0,0c-0.3,0.4-0.6,0.7-0.9,1.1c0.3-0.4,0.5-0.7,0.8-1.1c0,0,0,0,0,0c0,0,0,0,0,0c-0.3,0.3-0.7,0.6-1,0.9
						c0.3-0.3,0.6-0.7,1-1c0,0,0,0,0,0c-0.4,0.2-0.8,0.5-1.1,0.7c0.4-0.3,0.7-0.5,1.1-0.8c0,0,0,0,0,0c-0.4,0.2-0.8,0.3-1.2,0.5
						c0.4-0.2,0.8-0.4,1.2-0.6c0,0,0,0,0,0c-0.4,0.1-0.8,0.2-1.2,0.3c0.4-0.1,0.8-0.2,1.2-0.4c0,0,0,0,0,0c-0.4,0-0.8,0-1.2,0
						c0.4,0,0.8-0.1,1.2-0.2c0,0,0,0,0,0c-0.4-0.1-0.7-0.1-1.1-0.2c0.4,0,0.8,0.1,1.1,0.1c0,0,0,0,0,0c-0.3-0.1-0.7-0.3-1-0.4
						c0.3,0.1,0.7,0.2,1,0.3c0,0,0,0,0,0c-0.3-0.2-0.5-0.4-0.8-0.7c0.3,0.2,0.6,0.4,0.9,0.6c0,0,0,0,0,0c-0.2-0.3-0.4-0.6-0.6-0.9
						c0.2,0.3,0.5,0.5,0.7,0.8c0,0,0,0,0,0c-0.1-0.3-0.3-0.7-0.4-1c0.2,0.3,0.3,0.6,0.5,0.9c0,0,0,0,0,0c-0.1-0.4-0.1-0.8-0.2-1.1
						c0.1,0.4,0.2,0.7,0.3,1.1c0,0,0,0,0,0c0-0.4,0-0.8,0.1-1.2c0,0.4,0,0.8,0.1,1.2c0,0,0,0,0,0c0.1-0.4,0.2-0.8,0.3-1.3
						c-0.1,0.4-0.1,0.8-0.2,1.2c0,0,0,0,0,0c0.2-0.4,0.3-0.8,0.5-1.2c-0.1,0.4-0.3,0.8-0.4,1.2c0,0,0,0,0,0c0.2-0.4,0.5-0.8,0.7-1.2
						c-0.2,0.4-0.4,0.8-0.6,1.2c0,0,0,0,0,0c0,0,0,0,0,0c0.3-0.4,0.6-0.7,0.9-1.1c-0.3,0.4-0.5,0.7-0.8,1.1c0,0,0,0,0,0c0,0,0,0,0,0
						c0.3-0.3,0.7-0.6,1-0.9c-0.3,0.3-0.6,0.7-1,1c0,0,0,0,0,0c0,0,0,0,0,0c0,0,0,0,0,0c0.4-0.2,0.8-0.5,1.2-0.7
						c-0.4,0.3-0.7,0.5-1.1,0.8c0,0,0,0,0,0c0,0,0,0,0,0c0.4-0.2,0.8-0.4,1.2-0.5c-0.4,0.2-0.8,0.4-1.2,0.6c0,0,0,0,0,0c0,0,0,0,0,0
						c0.4-0.1,0.8-0.2,1.2-0.3c-0.4,0.1-0.8,0.2-1.2,0.4c0,0,0,0,0,0c0,0,0,0,0,0c0.4,0,0.8,0,1.2,0C14,12.3,13.6,12.4,13.2,12.4
						C13.2,12.4,13.2,12.4,13.2,12.4z"/>
				</g>
				<g>
					<path class="st6" d="M12.5,14.4c-1.1,0.3-2-0.3-2-1.4c0-1.1,0.9-2.2,2-2.5c1.1-0.3,2,0.3,2,1.4C14.4,13,13.6,14.1,12.5,14.4z
						 M12.5,10.6c-1,0.3-1.8,1.3-1.8,2.4c0,1,0.8,1.6,1.8,1.3c1-0.3,1.8-1.3,1.8-2.4C14.3,10.9,13.5,10.3,12.5,10.6z"/>
				</g>
			</g>
		</g>
	</g>
</g>
</svg>
