<?xml version="1.0" encoding="utf-8"?>
<!-- Generator: Adobe Illustrator 24.1.2, SVG Export Plug-In . SVG Version: 6.00 Build 0)  -->
<svg version="1.1" id="Layer_1" xmlns="http://www.w3.org/2000/svg" xmlns:xlink="http://www.w3.org/1999/xlink" x="0px" y="0px"
	 viewBox="0 0 25 25" style="enable-background:new 0 0 25 25;" xml:space="preserve">
<style type="text/css">
	.st0{fill:#43AF50;}
	.st1{fill:#FFF915;}
	.st2{fill:#39ACC6;}
	.st3{fill:#FFFFFF;}
	.st4{fill:#FF9A15;}
	.st5{fill:#37AA41;}
	.st6{fill:#2D3A8E;}
	.st7{fill:#DD2F2F;}
	.st8{fill:#2E4593;}
	.st9{fill:#DB2E2E;}
	.st10{fill:#39B742;}
	.st11{fill:#FF3B45;}
	.st12{fill:#E83434;}
</style>
<path d="M23.5,19.8c0-1.4,0-2.8,0-4.2c0,0,0,0,0,0c0-1.4,0-2.8,0-4.2c0,0,0,0,0,0c0-1.4,0-2.8,0-4.1c-6.7-3.8-13.4,3.8-20,0
	c0,1.4,0,2.8,0,4.1c0,0.7,0,1.5,0,2.2c0,0.7,0,1.3,0,2c0,1.4,0,2.8,0,4.2C10.2,23.6,16.8,16,23.5,19.8z"/>
<g>
	<g>
		<g>
			<g>
				<g>
					<g>
						<g>
							<path class="st11" d="M22.5,18.8c-6.7-3.8-13.4,3.8-20.1,0c0-4.2,0-8.4,0-12.6c6.7,3.8,13.4-3.8,20.1,0
								C22.5,10.4,22.5,14.6,22.5,18.8z"/>
						</g>
					</g>
					<g>
						<path class="st3" d="M17.5,17.7c-3.3,0.2-6.7,1.9-10,2.1c0-4.2,0-8.4,0-12.6c3.3-0.2,6.7-1.9,10-2.1
							C17.5,9.3,17.5,13.5,17.5,17.7z"/>
					</g>
				</g>
				<g>
					<path class="st11" d="M12.2,14.8c0,0.7,0,1.5,0,2.2c0.1,0,0.3-0.1,0.4-0.1c0-0.8,0-1.5,0-2.3c0.7,0,1.4-0.1,2.1-0.1
						c-0.1-0.2-0.2-0.4-0.3-0.6c0.7-0.8,1.3-1.6,2-2.3c-0.2,0-0.4,0-0.5,0c0.1-0.5,0.2-0.9,0.4-1.4c-0.4,0.1-0.8,0.3-1.2,0.5
						c-0.1-0.2-0.2-0.4-0.3-0.6c-0.4,0.4-0.7,0.9-1.1,1.3c0.1-0.9,0.2-1.7,0.3-2.6c-0.2,0.2-0.5,0.3-0.7,0.5C13,8.8,12.7,8.4,12.4,8
						c-0.3,0.6-0.6,1.2-0.8,1.8c-0.3-0.1-0.6-0.2-0.8-0.3c0.1,0.8,0.3,1.7,0.4,2.5c-0.4-0.3-0.8-0.6-1.1-0.9c0,0.2-0.1,0.5-0.1,0.7
						c-0.4,0-0.8,0-1.2,0c0.1,0.4,0.3,0.8,0.4,1.2c-0.2,0.1-0.4,0.2-0.6,0.3c0.6,0.5,1.3,0.9,1.9,1.4c-0.1,0.3-0.2,0.5-0.3,0.8
						C10.8,15.3,11.5,15,12.2,14.8z"/>
				</g>
			</g>
		</g>
	</g>
</g>
</svg>
